<?xml version="1.0" encoding="utf-8"?>
<!-- Generator: Adobe Illustrator 21.0.0, SVG Export Plug-In . SVG Version: 6.00 Build 0)  -->
<svg version="1.1" id="Calque_1" xmlns="http://www.w3.org/2000/svg" xmlns:xlink="http://www.w3.org/1999/xlink" x="0px" y="0px"
	 viewBox="0 0 40 39.9" style="enable-background:new 0 0 40 39.9;" xml:space="preserve">
<style type="text/css">
	.st0{enable-background:new    ;}
	.st1{clip-path:url(#SVGID_2_);fill:#1D1D1B;}
	.st2{fill:#1D1D1B;}
</style>
<text transform="matrix(1 0 0 1 -177 164.3041)" style="font-family:'HelveticaNeue-Bold'; font-size:5px;">Created by SELicon</text>
<text transform="matrix(1 0 0 1 -177 169.3041)" style="font-family:'HelveticaNeue-Bold'; font-size:5px;">from the Noun Project</text>
<g>
	<defs>
		<line id="SVGID_1_" x1="732.6" y1="-67" x2="732.6" y2="-88.2"/>
	</defs>
	<clipPath id="SVGID_2_">
		<use xlink:href="#SVGID_1_"  style="overflow:visible;"/>
	</clipPath>
	<path class="st1" d="M719-74.2c0,4.1,3.1,6.4,7.2,6.4c3.7,0,6.4-1.8,6.4-4.9c0-2.7-1.6-4.1-4.7-4.7l-3.1-0.6
		c-2-0.4-3.1-0.9-3.1-2.6c0-1.9,1.4-3.1,3.8-3.1c2.8,0,4.5,1.6,4.6,4.4l2.1-0.1c0-3.8-2.5-6.1-6.8-6.1c-3.7,0-6.1,2-6.1,5
		c0,2.6,1.7,4,4.2,4.5l3.4,0.6c2.2,0.4,3.2,1.2,3.2,2.8c0,1.9-1.6,2.9-4.1,2.9c-2.9,0-5-1.6-5.1-4.7L719-74.2z M712.2-68.1v-15.1
		h6.3v-1.9h-14.8v1.9h6.2v15.1H712.2z M687.2-76.6c0,5.2,3.6,8.8,8.3,8.8c4.9,0,7.6-3,7.9-7.4l-2.3-0.1c-0.2,3.1-2.2,5.5-5.7,5.5
		c-3.5,0-5.9-2.6-5.9-6.8c0-4.2,2.5-6.8,5.9-6.8c3.5,0,5.5,2.3,5.7,5.5l2.3-0.1c-0.3-4.4-3.1-7.4-7.9-7.4
		C690.8-85.4,687.2-81.9,687.2-76.6 M686-70.1h-9.9v-5.9h7.6v-1.9h-7.6v-5.3h9.6v-1.9h-11.9v17H686V-70.1z M668.5-85.1V-74
		c0,2.9-1.2,4.3-3.6,4.3c-2.5,0-3.8-1.6-3.9-4.4l-2.2,0.1c0.2,4.1,2.5,6.2,6.1,6.2c3.6,0,5.9-2.1,5.9-6.1v-11.2H668.5z M655.2-76.6
		c0,4.2-2.3,6.8-6,6.8s-6-2.7-6-6.8c0-4.2,2.4-6.8,6-6.8S655.2-80.8,655.2-76.6 M657.7-76.6c0-5.2-3.5-8.8-8.5-8.8
		c-5,0-8.5,3.6-8.5,8.8s3.5,8.8,8.5,8.8C654.1-67.8,657.7-71.4,657.7-76.6 M627.9-76.8v-6.4h4.5c2.9,0,4.2,1.2,4.2,3.2
		c0,2.1-1.3,3.2-4.2,3.2H627.9z M639.1-68.1c-0.6-0.6-0.6-1.6-0.9-4.1c-0.2-2-1.2-3.3-3.2-3.7c2.1-0.2,3.9-1.6,3.9-4.2
		c0-3-2.1-5-6.4-5h-6.9v17h2.3V-75h4.8c2.3,0,3.2,1.3,3.3,3.2c0.1,2,0.4,3.2,0.7,3.7H639.1z M612.9-74.5h3.9c4.2,0,6.6-2,6.6-5.3
		c0-3.3-2.4-5.3-6.6-5.3h-6.2v17h2.3V-74.5z M612.9-76.4v-6.8h3.8c3,0,4.4,1.2,4.4,3.4c0,2.2-1.4,3.4-4.4,3.4H612.9z M588.3-68.1
		h6.2c5.3,0,8.7-3.2,8.7-8.5s-3.4-8.5-8.7-8.5h-6.2V-68.1z M590.7-70v-13.2h3.7c4.2,0,6.4,2.5,6.4,6.6c0,4.1-2.3,6.6-6.4,6.6H590.7z
		 M585.7-70.1h-9.9v-5.9h7.6v-1.9h-7.6v-5.3h9.6v-1.9h-11.9v17h12.1V-70.1z M559.7-76.8v-6.4h4.5c2.9,0,4.2,1.2,4.2,3.2
		c0,2.1-1.3,3.2-4.2,3.2H559.7z M570.9-68.1c-0.6-0.6-0.6-1.6-0.9-4.1c-0.2-2-1.2-3.3-3.2-3.7c2.1-0.2,3.9-1.6,3.9-4.2
		c0-3-2.1-5-6.4-5h-6.9v17h2.3V-75h4.8c2.3,0,3.2,1.3,3.3,3.2c0.1,2,0.4,3.2,0.7,3.7H570.9z M547.4-67.8c3.8,0,6.9-1.9,6.9-6.8
		v-10.5H552v10.6c0,3.2-1.6,4.8-4.6,4.8c-3,0-4.6-1.6-4.6-4.8v-10.5h-2.3v10.5C540.5-69.6,543.6-67.8,547.4-67.8 M532.2-68.1v-15.1
		h6.3v-1.9h-14.8v1.9h6.2v15.1H532.2z M516.4-82.5h0.1l3.1,7.6h-6.3L516.4-82.5z M515.3-85.1l-6.9,17h2.3l2-5h7.7l2.1,5h2.5l-7.1-17
		H515.3z M507-70.1h-9.9v-5.9h7.6v-1.9h-7.6v-5.3h9.6v-1.9h-11.9v17H507V-70.1z M483.3-68.1v-7.5h7.3v-1.9h-7.3v-5.6h9.3v-1.9h-11.6
		v17H483.3z"/>
</g>
<polygon class="st2" points="19,4.5 19,30.5 11,22.1 9.1,24.1 20.5,35.4 31.8,24.1 29.9,22.1 21.9,30.5 21.9,4.5 "/>
</svg>
